<svg width="202" height="201" viewBox="0 0 202 201" fill="none" xmlns="http://www.w3.org/2000/svg">
<path d="M177.215 29.249L142.563 63.902L137.563 58.903L172.217 24.25L147.967 0C141.432 0 95.191 0 88.004 0L101.004 13C115.557 13 127.434 12.999 142.583 13L153.833 24.25L128.372 49.711L114.784 36.124L105.593 45.316C110.837 50.561 127.214 66.938 133.37 73.094L105.968 100.498L129.218 123.749L138.409 114.557L124.352 100.498L177.215 47.633L188.467 58.883V72.806L169.967 91.306L156.268 77.607L147.075 86.799C157.933 97.656 171.643 111.368 182.52 122.244V103.859L179.159 100.498L201.468 78.19C201.468 64.231 201.468 67.548 201.468 53.498L177.215 29.249Z" fill="url(#paint0_linear_6022_6)"/>
<path d="M188.467 142.114L177.215 153.364L151.754 127.903L165.342 114.316L156.149 105.124C150.905 110.369 134.528 126.745 128.372 132.902L100.967 105.498L77.716 128.749L86.908 137.941L100.967 123.882L153.833 176.747L142.583 187.998H128.659L110.159 169.498L123.858 155.799L114.667 146.607C103.81 157.464 90.097 171.175 79.221 182.051H97.606L100.967 178.691L123.274 200.999C137.233 200.999 133.916 200.999 147.967 200.999L172.217 176.748L137.563 142.095L142.563 137.096L177.215 171.749L201.467 147.499C201.467 140.964 201.467 94.724 201.467 87.536L188.467 100.536C188.467 115.089 188.467 126.966 188.467 142.114Z" fill="url(#paint1_linear_6022_6)"/>
<path d="M59.352 187.999L48.102 176.748L73.563 151.287L87.151 164.874L96.342 155.682C91.097 150.437 74.721 134.06 68.564 127.904L95.967 100.5L72.717 77.249L63.524 86.441L77.583 100.5L24.719 153.365L13.468 142.115V128.192L31.968 109.692L45.667 123.391L54.859 114.199C44.002 103.342 30.291 89.63 19.415 78.755V97.14L22.775 100.5L0.46701 122.808C0.46701 136.767 0.46701 133.45 0.46701 147.5L24.718 171.75L59.371 137.097L64.371 142.096L29.717 176.749L53.967 201C60.502 201 106.743 201 113.93 201L100.929 188C86.377 187.999 74.5 187.999 59.352 187.999Z" fill="url(#paint2_linear_6022_6)"/>
<path d="M13.467 58.884L24.718 47.634L50.179 73.095L36.592 86.683L45.784 95.875C51.029 90.629 67.406 74.253 73.562 68.096L100.966 95.5L124.216 72.249L115.025 63.057L100.966 77.116L48.101 24.251L59.351 13.001H73.274L91.774 31.501L78.075 45.199L87.267 54.391C98.124 43.534 111.836 29.823 122.713 18.947H104.328L100.966 22.308L78.658 0C64.7 0 68.016 0 53.966 0L29.716 24.25L64.37 58.903L59.37 63.902L24.717 29.249L0.466003 53.499C0.466003 60.034 0.466003 106.274 0.466003 113.463L13.466 100.463C13.467 85.909 13.467 74.032 13.467 58.884Z" fill="url(#paint3_linear_6022_6)"/>
<defs>
<linearGradient id="paint0_linear_6022_6" x1="190.623" y1="5.7617" x2="11.7148" y2="184.67" gradientUnits="userSpaceOnUse">
<stop stop-color="#DEC699"/>
<stop offset="1" stop-color="#B8A379"/>
</linearGradient>
<linearGradient id="paint1_linear_6022_6" x1="231.288" y1="46.4272" x2="52.3804" y2="225.335" gradientUnits="userSpaceOnUse">
<stop stop-color="#DEC699"/>
<stop offset="1" stop-color="#B8A379"/>
</linearGradient>
<linearGradient id="paint2_linear_6022_6" x1="195.705" y1="10.8436" x2="16.797" y2="189.751" gradientUnits="userSpaceOnUse">
<stop stop-color="#DEC699"/>
<stop offset="1" stop-color="#B8A379"/>
</linearGradient>
<linearGradient id="paint3_linear_6022_6" x1="155.038" y1="-29.8224" x2="-23.8691" y2="149.085" gradientUnits="userSpaceOnUse">
<stop stop-color="#DEC699"/>
<stop offset="1" stop-color="#B8A379"/>
</linearGradient>
</defs>
</svg>
